<svg width="350" height="128" viewBox="0 0 350 128" fill="none" xmlns="http://www.w3.org/2000/svg">
<path d="M304.726 67.2266L279.585 126.347H266.367L275.562 105.946L259.256 67.2266H272.976L282.242 92.2971L291.437 67.2266H304.726Z" fill="white"/>
<path d="M256.628 54.1406V107.299H244.345V54.1406H256.628Z" fill="white"/>
<path d="M222.118 66.7969C226.811 66.7969 230.546 68.3294 233.324 71.3943C236.149 74.4114 237.562 78.5779 237.562 83.8937V107.312H225.35V85.5459C225.35 82.8641 224.656 80.7808 223.267 79.2962C221.878 77.8116 220.01 77.0693 217.664 77.0693C215.317 77.0693 213.45 77.8116 212.061 79.2962C210.672 80.7808 209.978 82.8641 209.978 85.5459V107.312H197.694V67.2279H209.978V72.5437C211.223 70.7718 212.899 69.3829 215.006 68.3773C217.113 67.3237 219.484 66.7969 222.118 66.7969Z" fill="white"/>
<path d="M165.922 66.6406C168.747 66.6406 171.214 67.2153 173.321 68.3647C175.476 69.514 177.128 71.0226 178.277 72.8903V67.2153H190.561V107.228C190.561 110.915 189.818 114.244 188.334 117.213C186.897 120.23 184.67 122.624 181.653 124.396C178.684 126.168 174.973 127.054 170.519 127.054C164.581 127.054 159.768 125.641 156.081 122.816C152.393 120.038 150.286 116.255 149.759 111.466H161.899C162.282 112.998 163.192 114.196 164.629 115.058C166.066 115.968 167.837 116.423 169.945 116.423C172.483 116.423 174.494 115.68 175.979 114.196C177.511 112.759 178.277 110.436 178.277 107.228V101.553C177.08 103.42 175.428 104.953 173.321 106.15C171.214 107.299 168.747 107.874 165.922 107.874C162.618 107.874 159.625 107.036 156.943 105.36C154.261 103.636 152.13 101.217 150.55 98.1045C149.017 94.9438 148.251 91.3041 148.251 87.1856C148.251 83.067 149.017 79.4513 150.55 76.3384C152.13 73.2255 154.261 70.831 156.943 69.1549C159.625 67.4787 162.618 66.6406 165.922 66.6406ZM178.277 87.2574C178.277 84.1924 177.415 81.774 175.691 80.002C174.015 78.2301 171.956 77.3441 169.514 77.3441C167.071 77.3441 164.988 78.2301 163.264 80.002C161.588 81.7261 160.75 84.1206 160.75 87.1856C160.75 90.2505 161.588 92.6929 163.264 94.5128C164.988 96.2847 167.071 97.1707 169.514 97.1707C171.956 97.1707 174.015 96.2847 175.691 94.5128C177.415 92.7408 178.277 90.3224 178.277 87.2574Z" fill="white"/>
<path d="M137.433 63.0552C135.278 63.0552 133.507 62.4326 132.118 61.1875C130.777 59.8944 130.106 58.314 130.106 56.4463C130.106 54.5307 130.777 52.9503 132.118 51.7052C133.507 50.4121 135.278 49.7656 137.433 49.7656C139.541 49.7656 141.265 50.4121 142.605 51.7052C143.994 52.9503 144.689 54.5307 144.689 56.4463C144.689 58.314 143.994 59.8944 142.605 61.1875C141.265 62.4326 139.541 63.0552 137.433 63.0552ZM143.539 67.2216V107.306H131.256V67.2216H143.539Z" fill="white"/>
<path d="M109.261 107.874C105.765 107.874 102.652 107.276 99.9226 106.078C97.193 104.881 95.038 103.253 93.4576 101.193C91.8773 99.0863 90.9914 96.7397 90.7998 94.1536H102.94C103.083 95.5424 103.73 96.6678 104.879 97.5299C106.028 98.3919 107.441 98.8229 109.117 98.8229C110.65 98.8229 111.823 98.5355 112.637 97.9609C113.499 97.3383 113.93 96.5481 113.93 95.5903C113.93 94.4409 113.331 93.6029 112.134 93.0761C110.937 92.5014 108.998 91.8788 106.316 91.2083C103.442 90.5379 101.048 89.8435 99.1325 89.1251C97.2169 88.3589 95.5647 87.1856 94.176 85.6052C92.7872 83.9769 92.0928 81.7979 92.0928 79.0682C92.0928 76.7694 92.7154 74.6862 93.9605 72.8185C95.2535 70.9029 97.1211 69.3943 99.5634 68.2928C102.054 67.1914 104.999 66.6406 108.399 66.6406C113.427 66.6406 117.378 67.8858 120.251 70.3761C123.173 72.8664 124.849 76.1708 125.28 80.2894H113.93C113.739 78.9005 113.116 77.7991 112.062 76.9849C111.057 76.1708 109.716 75.7637 108.04 75.7637C106.603 75.7637 105.502 76.0511 104.735 76.6257C103.969 77.1525 103.586 77.8948 103.586 78.8526C103.586 80.002 104.185 80.864 105.382 81.4387C106.627 82.0134 108.543 82.5881 111.129 83.1628C114.098 83.929 116.516 84.6953 118.384 85.4615C120.251 86.1799 121.88 87.3771 123.268 89.0533C124.705 90.6815 125.447 92.8845 125.495 95.6621C125.495 98.0088 124.825 100.116 123.484 101.984C122.191 103.803 120.299 105.24 117.809 106.294C115.367 107.347 112.517 107.874 109.261 107.874Z" fill="white"/>
<path d="M88.2246 86.6109C88.2246 87.7602 88.1528 88.9575 88.0091 90.2026H60.2097C60.4012 92.6929 61.1914 94.6085 62.5802 95.9495C64.0168 97.2425 65.7648 97.889 67.824 97.889C70.8889 97.889 73.0199 96.596 74.2171 94.0099H87.2908C86.6203 96.6439 85.3992 99.0145 83.6273 101.122C81.9033 103.229 79.7244 104.881 77.0905 106.078C74.4566 107.276 71.5114 107.874 68.255 107.874C64.3281 107.874 60.8322 107.036 57.7674 105.36C54.7025 103.684 52.308 101.289 50.584 98.1764C48.86 95.0635 47.998 91.4238 47.998 87.2574C47.998 83.0909 48.8361 79.4513 50.5122 76.3384C52.2362 73.2255 54.6306 70.831 57.6955 69.1549C60.7604 67.4787 64.2802 66.6406 68.255 66.6406C72.134 66.6406 75.582 67.4548 78.599 69.083C81.616 70.7113 83.9625 73.034 85.6386 76.0511C87.3626 79.0682 88.2246 82.5881 88.2246 86.6109ZM75.6538 83.3783C75.6538 81.2711 74.9355 79.5949 73.4988 78.3498C72.0622 77.1047 70.2663 76.4821 68.1113 76.4821C66.0521 76.4821 64.3042 77.0807 62.8675 78.278C61.4787 79.4752 60.6167 81.1753 60.2815 83.3783H75.6538Z" fill="white"/>
<path d="M18.8921 56.875C24.2078 56.875 28.853 57.9286 32.8277 60.0358C36.8025 62.1429 39.8674 65.1121 42.0224 68.9433C44.2253 72.7267 45.3267 77.1086 45.3267 82.0892C45.3267 87.0219 44.2253 91.4039 42.0224 95.2351C39.8674 99.0663 36.7786 102.036 32.7559 104.143C28.7811 106.25 24.1599 107.303 18.8921 107.303H0V56.875H18.8921ZM18.102 96.6718C22.7472 96.6718 26.3628 95.4027 28.9488 92.8645C31.5348 90.3264 32.8277 86.7346 32.8277 82.0892C32.8277 77.4439 31.5348 73.8282 28.9488 71.2421C26.3628 68.656 22.7472 67.363 18.102 67.363H12.2835V96.6718H18.102Z" fill="white"/>
<ellipse cx="296.575" cy="25.3669" rx="25.3661" ry="25.3669" fill="#A8DB17"/>
<path d="M350 62.3917V25.3516C350 25.3516 340.632 26.4166 335.633 30.5147C328.23 36.5845 323.712 46.4737 319.022 50.494C311.165 57.2285 302.635 57.453 302.635 57.453C302.635 57.453 307.349 61.7182 314.981 61.7182C322.613 61.7182 350 62.3917 350 62.3917Z" fill="#A8D917"/>
</svg>
